<svg width="96" height="96" viewBox="0 0 96 96" fill="none" xmlns="http://www.w3.org/2000/svg">
  <rect x="4" y="4" width="88" height="88" rx="21" fill="#1897D6"/>
  <path d="M44.8 27.6L49.7 41.1L63.2 46L49.7 50.9L44.8 64.4L39.9 50.9L26.4 46L39.9 41.1L44.8 27.6Z" fill="white"/>
  <path d="M67.8 21L70.4 28L77.4 30.6L70.4 33.2L67.8 40.2L65.2 33.2L58.2 30.6L65.2 28L67.8 21Z" fill="white"/>
  <path d="M66.2 50L68.1 55.1L73.2 57L68.1 58.9L66.2 64L64.3 58.9L59.2 57L64.3 55.1L66.2 50Z" fill="white"/>
</svg>
